<svg id="Layer_1" data-name="Layer 1" xmlns="http://www.w3.org/2000/svg" xmlns:xlink="http://www.w3.org/1999/xlink" viewBox="0 0 472.1 467.39"><defs><style>.cls-1{fill:url(#linear-gradient);}.cls-2{fill:url(#linear-gradient-2);}.cls-3{fill:url(#linear-gradient-3);}.cls-4{fill:url(#linear-gradient-4);}.cls-5{fill:url(#linear-gradient-5);}.cls-6{fill:url(#linear-gradient-6);}.cls-7{fill:url(#linear-gradient-7);}.cls-8{fill:url(#linear-gradient-8);}.cls-9{fill:url(#linear-gradient-9);}.cls-10{fill:url(#linear-gradient-10);}.cls-11{fill:url(#linear-gradient-11);}.cls-12{fill:url(#linear-gradient-12);}.cls-13{fill:url(#linear-gradient-13);}.cls-14{fill:url(#linear-gradient-14);}</style><linearGradient id="linear-gradient" x1="136" y1="489.66" x2="173.66" y2="405.13" gradientUnits="userSpaceOnUse"><stop offset="0" stop-color="#2c5dbe"/><stop offset="1" stop-color="#5b94ef"/><stop offset="1" stop-color="#5c97f4"/><stop offset="1" stop-color="#5f9cff"/></linearGradient><linearGradient id="linear-gradient-2" x1="292" y1="434" x2="362" y2="434" gradientUnits="userSpaceOnUse"><stop offset="0" stop-color="#2c5dbe"/><stop offset="0.31" stop-color="#2e60c1"/><stop offset="0.53" stop-color="#3669ca"/><stop offset="0.73" stop-color="#4278da"/><stop offset="0.91" stop-color="#538ef0"/><stop offset="1" stop-color="#5f9cff"/></linearGradient><linearGradient id="linear-gradient-3" x1="173" y1="437.39" x2="270" y2="437.39" gradientUnits="userSpaceOnUse"><stop offset="0" stop-color="#2c5dbe"/><stop offset="0.62" stop-color="#3366c7"/><stop offset="0.71" stop-color="#376bcc"/><stop offset="0.83" stop-color="#437adc"/><stop offset="0.96" stop-color="#5792f5"/><stop offset="1" stop-color="#5f9cff"/></linearGradient><linearGradient id="linear-gradient-4" x1="191" y1="402.5" x2="288" y2="402.5" gradientUnits="userSpaceOnUse"><stop offset="0" stop-color="#2c5dbe"/><stop offset="1" stop-color="#5f9cff"/></linearGradient><linearGradient id="linear-gradient-5" x1="20" y1="464" x2="117" y2="464" xlink:href="#linear-gradient"/><linearGradient id="linear-gradient-6" x1="18" y1="402.5" x2="115" y2="402.5" xlink:href="#linear-gradient"/><linearGradient id="linear-gradient-7" x1="367.34" y1="142.05" x2="514.89" y2="209.18" gradientUnits="userSpaceOnUse"><stop offset="0" stop-color="#2c5dbe"/><stop offset="0.59" stop-color="#4c85e7"/><stop offset="1" stop-color="#5f9cff"/></linearGradient><linearGradient id="linear-gradient-8" x1="369.75" y1="335.83" x2="490.1" y2="335.83" gradientUnits="userSpaceOnUse"><stop offset="0" stop-color="#2c5dbe"/><stop offset="0.41" stop-color="#2e5fc0"/><stop offset="0.61" stop-color="#3466c8"/><stop offset="0.76" stop-color="#3e73d5"/><stop offset="0.89" stop-color="#4c85e7"/><stop offset="1" stop-color="#5f9cff"/><stop offset="1" stop-color="#5f9cff"/></linearGradient><linearGradient id="linear-gradient-9" x1="467.84" y1="489.05" x2="366.28" y2="344.85" xlink:href="#linear-gradient-7"/><linearGradient id="linear-gradient-10" x1="374.38" y1="213.23" x2="423.97" y2="283.72" gradientTransform="translate(1.69 -2.69) rotate(0.39)" xlink:href="#linear-gradient-7"/><linearGradient id="linear-gradient-11" x1="444.49" y1="270.09" x2="503.3" y2="191.62" xlink:href="#linear-gradient-7"/><linearGradient id="linear-gradient-12" x1="372.41" y1="119.91" x2="421.29" y2="35.42" xlink:href="#linear-gradient-7"/><linearGradient id="linear-gradient-13" x1="369.55" y1="388.03" x2="408.64" y2="388.03" gradientUnits="userSpaceOnUse"><stop offset="0" stop-color="#2c5dbe"/><stop offset="0.48" stop-color="#2d5fc0"/><stop offset="0.66" stop-color="#3365c7"/><stop offset="0.79" stop-color="#3c71d3"/><stop offset="0.89" stop-color="#4a82e4"/><stop offset="0.98" stop-color="#5b97fa"/><stop offset="1" stop-color="#5f9cff"/></linearGradient><linearGradient id="linear-gradient-14" x1="428.18" y1="121.8" x2="493.21" y2="30.23" gradientUnits="userSpaceOnUse"><stop offset="0.01" stop-color="#2c5dbe"/><stop offset="0.6" stop-color="#4c85e7"/><stop offset="1" stop-color="#5f9cff"/></linearGradient></defs><title>pattern</title><path class="cls-1" d="M187,386.69v94.62A12.69,12.69,0,0,1,174.31,494H132.69A12.69,12.69,0,0,1,120,481.31v-53A54.32,54.32,0,0,1,174.31,374h0A12.69,12.69,0,0,1,187,386.69Z" transform="translate(-18 -26.61)"/><path class="cls-2" d="M362,383.51v50.66A59.83,59.83,0,0,1,302.17,494h-.66a9.51,9.51,0,0,1-9.51-9.51v-101a9.51,9.51,0,0,1,9.51-9.51h51A9.51,9.51,0,0,1,362,383.51Z" transform="translate(-18 -26.61)"/><rect class="cls-3" x="173" y="407.39" width="97" height="60" rx="9.71"/><path class="cls-4" d="M251.36,431h-54a6.36,6.36,0,0,1-6.36-6.36V380.36a6.36,6.36,0,0,1,6.36-6.36h84.28a6.36,6.36,0,0,1,6.36,6.36v14A36.65,36.65,0,0,1,251.36,431Z" transform="translate(-18 -26.61)"/><path class="cls-5" d="M115.65,494H55.29A35.29,35.29,0,0,1,20,458.71v-17A7.71,7.71,0,0,1,27.71,434H75.35A41.65,41.65,0,0,1,117,475.65v17A1.34,1.34,0,0,1,115.65,494Z" transform="translate(-18 -26.61)"/><path class="cls-6" d="M19.35,374H79.71A35.29,35.29,0,0,1,115,409.29v14a7.71,7.71,0,0,1-7.71,7.71H59.65A41.65,41.65,0,0,1,18,389.35v-14A1.34,1.34,0,0,1,19.35,374Z" transform="translate(-18 -26.61)"/><path class="cls-7" d="M476.29,195.68l-94.62.64a12.67,12.67,0,0,1-12.77-12.6l-.29-41.63a12.7,12.7,0,0,1,12.6-12.77l53-.36a54.31,54.31,0,0,1,54.68,53.95h0A12.68,12.68,0,0,1,476.29,195.68Z" transform="translate(-18 -26.61)"/><path class="cls-8" d="M379.2,301.34l101-.68a9.5,9.5,0,0,1,9.58,9.45l.35,51a9.51,9.51,0,0,1-9.45,9.57L430,371a59.84,59.84,0,0,1-60.23-59.43v-.65A9.52,9.52,0,0,1,379.2,301.34Z" transform="translate(-18 -26.61)"/><path class="cls-9" d="M474.44,374.68h2a12.22,12.22,0,0,1,12.31,12.14l.63,93.55a12.21,12.21,0,0,1-12.14,12.31l-95.54.65a12.22,12.22,0,0,1-12.31-12.15h0A105.77,105.77,0,0,1,474.44,374.68Z" transform="translate(-18 -26.61)"/><rect class="cls-10" x="369.34" y="200.2" width="60" height="97" rx="9.71" transform="translate(-19.67 -23.9) rotate(-0.39)"/><path class="cls-11" d="M432.41,260.34l-.36-54a6.35,6.35,0,0,1,6.31-6.4l44.29-.3a6.35,6.35,0,0,1,6.4,6.31l.57,84.28a6.37,6.37,0,0,1-6.32,6.41l-14,.09A36.65,36.65,0,0,1,432.41,260.34Z" transform="translate(-18 -26.61)"/><path class="cls-12" d="M368.5,125.06l-.41-60.36a35.29,35.29,0,0,1,35.05-35.53l17-.11a7.7,7.7,0,0,1,7.76,7.65l.33,47.64a41.65,41.65,0,0,1-41.37,41.93l-17,.12A1.35,1.35,0,0,1,368.5,125.06Z" transform="translate(-18 -26.61)"/><path class="cls-13" d="M369.64,396.14l-.09-13.86A8.21,8.21,0,0,1,377.7,374l27-.18a3.93,3.93,0,0,1,3.95,3.9l0,3.15a21.12,21.12,0,0,1-21,21.26l-11.85.08A6.13,6.13,0,0,1,369.64,396.14Z" transform="translate(-18 -26.61)"/><path class="cls-14" d="M487.85,28l.4,60.35a35.28,35.28,0,0,1-35.05,35.53l-14,.1a7.71,7.71,0,0,1-7.76-7.66l-.32-47.64A41.65,41.65,0,0,1,472.49,26.7l14-.09A1.35,1.35,0,0,1,487.85,28Z" transform="translate(-18 -26.61)"/></svg>